<svg version="1.1" id="Layer_1" xmlns="http://www.w3.org/2000/svg" xmlns:xlink="http://www.w3.org/1999/xlink" x="0px" y="0px"
	 width="100%" viewBox="0 0 600 600" xml:space="preserve">
<path fill="none" opacity="1.000000" stroke="none"
	d="
M335.000000,601.000000
	C223.333328,601.000000 112.166664,601.000000 1.000000,601.000000
	C1.000000,401.000000 1.000000,201.000000 1.000000,1.000000
	C201.000000,1.000000 401.000000,1.000000 601.000000,1.000000
	C601.000000,201.000000 601.000000,401.000000 601.000000,601.000000
	C512.500000,601.000000 424.000000,601.000000 335.000000,601.000000
M206.600403,312.206421 
	C206.494629,312.541077 206.388840,312.875732 206.191711,313.162262 
	C206.191711,313.162262 206.227646,313.259033 205.558395,313.201141 
	C205.175751,313.898621 204.793106,314.596130 204.321274,315.363220 
	C204.321274,315.363220 204.264236,315.460938 203.680313,315.272156 
	C203.591034,315.374939 203.422134,315.482941 203.428452,315.579498 
	C203.443268,315.806610 203.541718,316.028320 203.500351,316.429474 
	C203.500351,316.429474 203.332016,316.549225 202.700027,316.170349 
	C202.174438,317.152008 201.648849,318.133698 201.000000,319.001221 
	C201.000000,319.001221 201.123245,319.113495 200.480087,319.188599 
	C200.017410,319.825653 199.554718,320.462738 198.993561,321.041504 
	C198.993561,321.041504 199.103058,321.073486 198.471848,321.170502 
	C198.052536,321.843384 197.633224,322.516296 197.103104,323.064758 
	C197.103104,323.064758 197.173935,323.215607 196.466614,323.003571 
	C194.929108,321.374573 193.391602,319.745575 192.001282,318.013000 
	C192.001282,318.013000 191.849350,318.107086 191.946930,317.449951 
	C191.585129,317.001587 191.223343,316.553192 190.993195,315.996979 
	C190.993195,315.996979 190.869415,316.112762 190.947266,315.342743 
	C187.985062,309.823914 185.022858,304.305054 181.670273,298.250366 
	C179.164810,300.204468 176.472824,301.962982 174.184662,304.144958 
	C161.053238,316.666962 148.017593,329.289398 134.335419,342.165253 
	C127.935669,348.782867 121.535904,355.400482 114.855957,362.651520 
	C113.551468,364.055756 112.246979,365.459991 110.239456,366.959564 
	C103.493187,373.186218 96.701340,379.364990 90.051147,385.692627 
	C89.083389,386.613403 88.792793,388.245880 88.161438,390.450470 
	C89.242928,390.954315 90.321724,391.890045 91.406319,391.896790 
	C106.213547,391.989288 121.022331,392.021667 135.828415,391.858551 
	C137.586273,391.839203 139.330490,390.579010 141.633484,389.544586 
	C146.099899,384.709351 150.566315,379.874146 155.001297,375.002075 
	C155.001297,375.002075 155.040421,375.030334 155.696228,374.801971 
	C160.996368,369.529205 166.296494,364.256470 172.191315,358.392090 
	C176.450638,365.092224 180.612549,371.409363 184.516953,377.881836 
	C186.356155,380.930756 187.855545,381.471588 190.371658,378.572998 
	C193.787277,374.638184 197.480637,370.944489 201.630676,366.891388 
	C202.449493,365.957306 203.268311,365.023224 204.727341,363.827087 
	C206.108856,362.765717 207.610611,361.828125 208.851700,360.622253 
	C215.226715,354.427795 215.203308,354.403717 218.027161,363.493774 
	C218.068787,363.660095 218.110413,363.826416 217.990952,364.745880 
	C218.038651,365.511292 218.086349,366.276733 218.009262,367.854095 
	C218.974991,372.630280 219.856842,377.425598 220.942337,382.174408 
	C221.473984,384.500214 222.384018,386.739471 223.381668,389.311798 
	C223.553909,389.510559 223.750183,389.681793 224.204788,390.656860 
	C224.992020,391.106934 225.777527,391.945679 226.566757,391.949188 
	C239.943588,392.008362 253.326141,392.144409 266.692657,391.755554 
	C268.799011,391.694275 270.833221,389.153748 273.193329,387.137329 
	C276.514221,381.104309 279.835144,375.071320 283.902893,368.915771 
	C286.335114,363.912445 290.921234,364.971161 295.108398,364.955444 
	C301.084747,364.933014 307.061310,364.927612 313.037628,364.956207 
	C318.613342,364.982880 324.331573,364.114014 329.508148,367.536346 
	C329.508148,367.536346 329.552002,367.681244 329.144989,368.348694 
	C330.781403,370.894135 332.417786,373.439606 334.004333,376.004639 
	C334.004333,376.004639 334.025330,375.955475 334.022583,376.495728 
	C334.305023,376.696014 334.587463,376.896271 335.078613,377.802948 
	C337.689056,381.872467 340.299500,385.942017 342.939117,390.916168 
	C343.521423,391.316559 344.103607,392.066528 344.686005,392.066681 
	C364.086609,392.071960 383.487549,392.043182 402.887146,391.872101 
	C404.300690,391.859619 405.704468,390.739258 407.817932,390.012573 
	C412.886078,386.155762 417.963226,382.310699 423.020111,378.439209 
	C429.357117,373.587708 435.677490,368.714569 442.475403,363.996033 
	C442.475403,363.996033 442.949890,364.127106 443.167938,364.730957 
	C444.481476,366.120972 445.795013,367.511017 447.222137,369.573364 
	C447.948486,369.848541 448.674835,370.123749 449.508972,370.508911 
	C449.508972,370.508911 449.583282,370.643799 449.122925,371.265503 
	C449.306335,371.868988 449.315277,372.632568 449.699707,373.051605 
	C454.394257,378.168610 458.962128,383.425140 463.972656,388.217041 
	C465.865936,390.027710 468.788910,391.714172 471.287079,391.780548 
	C484.412415,392.129211 497.553345,392.019409 510.684326,391.798676 
	C511.802277,391.779877 512.886902,389.778442 513.936951,388.040833 
	C512.646851,386.355408 511.356750,384.669983 509.969971,382.317139 
	C509.552643,381.976685 509.135315,381.636230 508.800079,381.113647 
	C508.800079,381.113647 508.669586,381.264893 508.870880,380.543579 
	C507.774353,379.596588 506.677856,378.649567 505.412842,377.569336 
	C505.412842,377.569336 505.319427,377.375946 505.472778,376.695770 
	C503.867035,374.927643 502.261322,373.159546 500.728210,371.225830 
	C500.728210,371.225830 500.597504,371.350769 500.795135,370.662689 
	C499.564728,369.417938 498.334290,368.173187 496.739532,366.362946 
	C495.442413,364.572510 494.145294,362.782074 492.729828,360.248322 
	C490.839844,358.166931 488.949860,356.085541 486.997101,353.351318 
	C485.926971,352.570923 484.856873,351.790527 483.414154,350.953522 
	C483.414154,350.953522 483.042877,350.889099 482.790131,350.252380 
	C476.119293,341.944672 469.375824,333.693848 462.805206,325.307617 
	C458.941681,320.376495 455.361176,315.223999 451.637634,310.182709 
	C448.242310,305.585785 444.630737,304.421539 441.636871,306.914490 
	C434.027679,313.250488 426.413147,319.580078 418.147461,325.959686 
	C416.909790,325.263275 415.379456,324.823547 414.496002,323.816406 
	C412.715240,321.786407 411.286407,319.447693 409.967865,317.115479 
	C409.967865,317.115479 409.714905,317.225006 409.839478,316.609100 
	C409.500732,316.401581 409.161957,316.194061 408.596771,315.760498 
	C408.596771,315.760498 408.485046,315.460693 408.771881,314.840973 
	C408.487000,314.520416 408.202148,314.199860 407.551117,313.290619 
	C402.907715,304.693970 398.449005,295.988922 393.508545,287.566498 
	C392.022003,285.032257 389.553528,282.394043 386.918945,281.333557 
	C376.762756,277.245453 366.357239,273.776825 355.572571,269.890686 
	C355.403503,269.896515 355.234406,269.902374 354.997040,269.987274 
	C354.997040,269.987274 355.081879,269.926758 354.760956,269.174561 
	C353.330109,269.097900 351.899261,269.021240 350.242584,268.932465 
	C350.070038,270.737976 349.938324,272.115906 349.662659,275.000092 
	C348.217896,271.843872 347.426025,269.966003 346.515656,268.147430 
	C334.036377,243.218781 321.554840,218.291214 309.010376,193.395370 
	C308.341217,192.067383 307.107880,191.023697 305.697723,189.319550 
	C304.881134,189.673660 303.666351,189.801254 303.314514,190.419754 
	C301.456390,193.685913 299.639221,196.998199 298.128723,200.435471 
	C289.746368,219.510452 281.419250,238.609940 273.152435,257.735291 
	C269.359650,266.509918 265.493500,275.268768 262.181580,284.227356 
	C260.893005,287.712799 261.039307,291.728699 260.402283,296.468262 
	C259.684265,294.802734 259.075317,293.996246 259.011261,293.148621 
	C258.304321,283.790253 257.673126,274.426086 257.043121,265.062012 
	C256.889771,262.782257 257.350586,260.140228 253.183258,260.448059 
	C250.519638,263.278198 247.775482,266.037354 245.207077,268.951416 
	C236.430008,278.909729 227.714706,288.922485 218.287994,299.046936 
	C214.220291,302.497925 209.292221,305.221313 208.000000,311.001221 
	C208.000000,311.001221 208.097900,311.096100 207.482010,311.089935 
	C207.384064,311.445312 207.286118,311.800659 207.003723,312.108368 
	C207.003723,312.108368 207.179871,312.182556 206.600403,312.206421 
z"/>
<path fill="#EDEFF0" opacity="1.000000" stroke="none" 
	d="
M218.164642,362.998077 
	C215.203308,354.403717 215.226715,354.427795 208.851700,360.622253 
	C207.610611,361.828125 206.108856,362.765717 204.361267,363.911499 
	C203.995178,363.995941 203.902863,363.903107 203.940674,363.535522 
	C205.367233,360.799316 206.755966,358.430725 208.144684,356.062103 
	C207.763031,355.833008 207.381378,355.603882 206.999710,355.374786 
	C205.333344,355.916107 203.666977,356.457428 202.025330,356.683472 
	C200.878342,354.958923 199.706604,353.549652 198.534882,352.140381 
	C197.746674,353.006622 196.958450,353.872864 196.170227,354.739075 
	C197.616852,355.492432 199.043198,356.289917 200.523285,356.970581 
	C200.933289,357.159149 201.502975,357.000549 201.961197,357.347046 
	C200.658340,359.183411 199.393677,360.673981 197.722427,362.643799 
	C196.780792,360.847748 196.370117,359.995819 195.899521,359.178375 
	C193.525635,355.054932 187.682159,351.760956 185.260849,353.642883 
	C182.652328,355.670319 180.299301,356.533142 177.140518,355.401245 
	C176.676788,355.235077 175.720856,356.442505 174.664124,356.977600 
	C173.228653,355.965363 172.121735,354.989838 170.745880,353.823242 
	C169.453308,353.571442 167.596390,353.257660 167.526840,353.486694 
	C165.286224,360.865021 163.598389,355.673126 161.880920,353.032837 
	C161.131027,353.288147 160.479340,353.403137 159.936996,353.710846 
	C153.185608,357.540985 147.673386,356.883698 141.682053,352.039276 
	C140.879715,351.390472 138.487610,352.247131 137.086075,352.929260 
	C135.678040,353.614624 134.738953,355.519348 133.329132,355.895477 
	C129.625488,356.883575 125.777489,357.330627 122.150536,357.694824 
	C125.534477,354.581940 128.754883,351.767487 132.180496,349.149353 
	C133.432190,348.849915 134.478668,348.354156 135.525162,347.858429 
	C135.002319,347.567322 134.479477,347.276215 134.011993,346.614014 
	C134.361389,344.787842 134.655426,343.332794 134.949463,341.877777 
	C148.017593,329.289398 161.053238,316.666962 174.184662,304.144958 
	C176.472824,301.962982 179.164810,300.204468 181.957642,298.876831 
	C185.119812,305.039795 187.994614,310.576294 190.869415,316.112762 
	C190.869415,316.112762 190.993195,315.996979 190.863464,316.364777 
	C191.105606,317.190735 191.477478,317.648926 191.849350,318.107086 
	C191.849350,318.107086 192.001282,318.013000 191.841339,318.417084 
	C191.807480,319.531006 191.933548,320.240814 191.630661,320.966431 
	C189.880493,320.571625 187.378967,319.945740 187.408905,319.781677 
	C188.431381,314.176971 182.598190,313.677277 180.515030,309.296112 
	C179.149231,314.771881 175.809494,313.544281 172.954483,312.758301 
	C169.136963,311.707397 167.381119,312.170319 168.661819,316.659332 
	C169.001770,317.850922 168.388000,319.314636 168.381531,319.363922 
	C165.370117,320.237122 163.271057,320.417694 161.745316,321.447632 
	C160.820129,322.072205 160.781982,324.010834 160.345337,325.359100 
	C162.291031,325.906433 164.219299,326.836243 166.185883,326.925934 
	C171.148102,327.152252 176.295258,327.779480 181.047836,326.756775 
	C184.948929,325.917328 191.108887,327.847137 192.327927,321.155090 
	C193.405228,322.967163 194.205399,324.559448 195.071686,326.480164 
	C196.090561,327.204041 197.043320,327.599457 197.998047,327.997437 
	C198.000000,328.000000 198.005066,328.003876 198.218521,328.259460 
	C199.493393,327.796906 201.477585,327.060699 201.463928,326.363708 
	C201.385147,322.346832 202.547852,322.999573 205.552826,324.264130 
	C209.264618,325.826141 213.476028,326.732880 217.512711,326.894348 
	C231.410080,327.450317 245.325607,327.548950 259.233795,327.841614 
	C263.986908,327.941650 265.911316,325.270905 264.377502,320.763641 
	C263.729889,318.860535 263.297760,316.884125 262.625031,314.418121 
	C264.600677,314.874847 265.591949,315.104004 266.896515,315.405579 
	C266.953552,311.164764 266.176636,306.869110 271.336426,305.008545 
	C272.110107,305.007385 272.552216,305.008667 273.143982,305.338135 
	C276.341827,311.961609 280.140778,313.676849 285.912628,311.391937 
	C286.943176,310.983917 288.267334,310.082916 289.024200,310.409637 
	C296.341919,313.568695 303.696136,316.691254 310.777069,320.335022 
	C316.134918,323.092102 321.110260,326.592499 326.255829,329.762085 
	C326.296936,329.246063 326.338043,328.730072 326.379120,328.214050 
	C328.880096,328.214050 331.727417,327.492706 333.759796,328.468597 
	C335.105835,329.114960 335.283722,332.194122 336.271851,335.000000 
	C337.485291,335.000000 339.428741,334.980042 341.371674,335.003021 
	C362.750305,335.255890 384.150208,334.444611 405.144440,335.471344 
	C404.886505,334.035919 404.472748,331.733215 404.058990,329.430481 
	C404.692535,329.174591 405.326111,328.918671 405.959656,328.662781 
	C407.582184,330.728607 409.095001,332.896698 410.880432,334.810547 
	C411.608398,335.590942 412.927551,335.819794 413.977722,336.299591 
	C413.902374,335.018860 413.879608,333.732361 413.739227,332.458801 
	C413.537354,330.627869 413.249786,328.806335 413.245636,326.988037 
	C413.492432,326.995270 413.986176,327.004059 414.261047,327.212219 
	C417.441132,331.113007 417.953247,328.038391 418.800781,325.912231 
	C426.413147,319.580078 434.027679,313.250488 441.636871,306.914490 
	C444.630737,304.421539 448.242310,305.585785 451.637634,310.182709 
	C455.361176,315.223999 458.941681,320.376495 462.805206,325.307617 
	C469.375824,333.693848 476.119293,341.944672 482.903564,350.981262 
	C483.178528,354.556519 482.058777,355.999939 478.983398,356.034698 
	C474.173737,356.088989 474.317444,352.729980 474.613068,348.235382 
	C471.096802,351.089478 468.508087,353.266296 465.820770,355.313782 
	C465.221130,355.770660 464.271637,355.967957 463.489441,355.953308 
	C458.462433,355.859100 453.158325,357.168182 448.825409,353.238068 
	C448.671906,353.098846 448.200714,353.309845 447.850433,353.361633 
	C447.184875,354.564209 446.514740,355.775177 445.595551,357.436127 
	C443.721283,355.986145 442.267548,354.653137 440.611206,353.657043 
	C439.592316,353.044312 437.743652,352.270569 437.155670,352.723114 
	C431.927948,356.746185 425.876770,355.970337 419.983490,355.981293 
	C395.846558,356.026123 371.708740,356.091339 347.573364,355.891632 
	C344.326813,355.864746 341.108521,354.296814 337.844818,353.592072 
	C336.431580,353.286865 334.936310,353.361481 332.696075,353.211060 
	C338.797119,360.038025 338.797119,360.038025 333.677734,361.771393 
	C332.393799,357.624542 329.713318,356.696442 325.628235,358.099365 
	C324.286621,358.560089 322.405273,357.710327 320.848206,357.215942 
	C318.943909,356.611359 317.021149,354.923615 315.279266,355.134247 
	C303.980743,356.500397 292.620911,354.214142 281.333679,355.887085 
	C279.944122,356.093048 278.381500,354.748810 276.836487,354.401306 
	C275.421906,354.083160 273.875946,353.861145 272.470490,354.094482 
	C269.763733,354.543884 267.088135,356.000305 264.447174,355.890900 
	C250.089630,355.296112 235.487640,358.271576 221.611206,353.073822 
	C220.910828,351.776001 220.217255,350.490753 219.523682,349.205536 
	C219.036285,349.429382 218.548904,349.653229 218.061508,349.877075 
	C218.579819,351.182190 219.429260,352.457489 219.549957,353.798401 
	C219.832428,356.936310 223.827118,360.746216 218.164642,362.998077 
M422.182861,333.450287 
	C421.389954,332.375702 420.597046,331.301117 419.804138,330.226532 
	C419.399628,330.355042 418.995087,330.483551 418.590546,330.612061 
	C418.774658,331.745178 418.567352,333.245819 419.219055,333.939941 
	C420.919159,335.750671 422.966766,337.247375 424.981201,338.725739 
	C425.128113,338.833557 426.428894,337.885468 426.631470,337.249359 
	C426.817657,336.664795 426.458252,335.551147 425.960144,335.181854 
	C425.067078,334.519745 423.889557,334.241272 422.182861,333.450287 
M323.735901,352.047821 
	C322.910797,352.636841 322.085693,353.225861 321.260620,353.814880 
	C321.452454,354.199799 321.644318,354.584717 321.836182,354.969666 
	C323.747070,354.854095 325.657959,354.738525 327.568817,354.622925 
	C327.626251,354.152740 327.683685,353.682556 327.741119,353.212372 
	C326.660736,352.814575 325.580322,352.416748 323.735901,352.047821 
M211.828217,354.207336 
	C212.460876,353.026794 213.093521,351.846222 213.726181,350.665680 
	C209.452271,353.430695 209.452271,353.430695 211.828217,354.207336 
z"/>
<path fill="#EBEDEE" opacity="1.000000" stroke="none" 
	d="
M218.095901,363.245911 
	C223.827118,360.746216 219.832428,356.936310 219.549957,353.798401 
	C219.429260,352.457489 218.579819,351.182190 218.061508,349.877075 
	C218.548904,349.653229 219.036285,349.429382 219.523682,349.205536 
	C220.217255,350.490753 220.910828,351.776001 221.611206,353.073822 
	C235.487640,358.271576 250.089630,355.296112 264.447174,355.890900 
	C267.088135,356.000305 269.763733,354.543884 272.470490,354.094482 
	C273.875946,353.861145 275.421906,354.083160 276.836487,354.401306 
	C278.381500,354.748810 279.944122,356.093048 281.333679,355.887085 
	C292.620911,354.214142 303.980743,356.500397 315.279266,355.134247 
	C317.021149,354.923615 318.943909,356.611359 320.848206,357.215942 
	C322.405273,357.710327 324.286621,358.560089 325.628235,358.099365 
	C329.713318,356.696442 332.393799,357.624542 333.677734,361.771393 
	C338.797119,360.038025 338.797119,360.038025 332.696075,353.211060 
	C334.936310,353.361481 336.431580,353.286865 337.844818,353.592072 
	C341.108521,354.296814 344.326813,355.864746 347.573364,355.891632 
	C371.708740,356.091339 395.846558,356.026123 419.983490,355.981293 
	C425.876770,355.970337 431.927948,356.746185 437.155670,352.723114 
	C437.743652,352.270569 439.592316,353.044312 440.611206,353.657043 
	C442.267548,354.653137 443.721283,355.986145 445.595551,357.436127 
	C446.514740,355.775177 447.184875,354.564209 447.850433,353.361633 
	C448.200714,353.309845 448.671906,353.098846 448.825409,353.238068 
	C453.158325,357.168182 458.462433,355.859100 463.489441,355.953308 
	C464.271637,355.967957 465.221130,355.770660 465.820770,355.313782 
	C468.508087,353.266296 471.096802,351.089478 474.613068,348.235382 
	C474.317444,352.729980 474.173737,356.088989 478.983398,356.034698 
	C482.058777,355.999939 483.178528,354.556519 483.029938,351.299622 
	C483.042877,350.889099 483.414154,350.953522 483.761383,351.262085 
	C485.092377,352.381805 486.076141,353.192963 487.059906,354.004120 
	C488.949860,356.085541 490.839844,358.166931 492.460876,360.694702 
	C489.945404,367.388000 490.785706,368.792297 496.954224,369.467590 
	C497.061981,374.122070 493.938324,374.110596 491.132538,373.957306 
	C480.389496,373.370422 469.357422,376.162384 459.004974,370.718567 
	C458.572845,372.487701 458.278229,373.693878 458.092682,374.453430 
	C455.741364,373.544250 453.809845,372.797363 451.623688,371.945221 
	C450.773804,371.441254 450.178558,371.042542 449.583282,370.643799 
	C449.583282,370.643799 449.508972,370.508911 449.418030,370.224731 
	C449.126038,369.694458 449.000153,369.414581 448.956299,368.721252 
	C447.875275,365.629089 447.896820,361.333496 442.949890,364.127106 
	C442.949890,364.127106 442.475403,363.996033 442.226410,363.578003 
	C438.523773,359.252838 436.997864,363.657379 434.849976,364.911682 
	C432.247498,366.431549 429.740875,368.154053 427.359039,370.003082 
	C424.585876,372.155945 421.992615,374.540619 418.164886,377.813477 
	C414.701721,377.048309 408.839172,379.448212 404.170990,374.838562 
	C403.685852,374.359528 402.637207,374.207184 401.886566,374.279999 
	C396.533783,374.799255 391.165161,376.076080 385.849243,375.871613 
	C372.892731,375.373260 359.879944,377.647400 346.970306,375.085144 
	C346.233002,374.938812 345.281036,375.176636 344.601013,375.549438 
	C339.300079,378.455750 336.905304,376.953827 335.226044,371.069122 
	C334.230164,367.579315 332.930206,363.255341 327.360046,363.025452 
	C313.259521,362.909790 299.611694,362.852692 285.702148,362.578186 
	C281.844574,361.869812 283.428070,364.619171 283.034790,366.366821 
	C283.001495,366.580933 282.854614,366.988708 282.523621,367.060425 
	C280.869873,368.985809 279.078003,370.667908 278.323944,372.729584 
	C276.839233,376.788757 274.034790,377.276215 270.416443,376.682648 
	C268.473114,376.363892 266.501495,376.042114 264.541077,376.032135 
	C252.764572,375.972229 240.987442,375.972809 229.210922,376.031067 
	C227.202805,376.041016 225.196518,376.427307 223.296555,376.628418 
	C222.549072,373.245422 221.976395,369.820007 220.957855,366.532715 
	C220.636566,365.495819 219.121017,364.828949 218.152039,363.992737 
	C218.110413,363.826416 218.068787,363.660095 218.095901,363.245911 
M448.193237,360.586029 
	C448.197632,360.206573 448.202026,359.827148 448.206451,359.447693 
	C448.049011,359.446014 447.754730,359.433655 447.753906,359.444183 
	C447.724426,359.821716 447.722351,360.201447 448.193237,360.586029 
M287.485413,361.579285 
	C287.485413,361.579285 287.432404,361.483734 287.485413,361.579285 
z"/>
<path fill="#F2F3F3" opacity="1.000000" stroke="none" 
	d="
M271.004883,305.010986 
	C266.176636,306.869110 266.953552,311.164764 266.896515,315.405579 
	C265.591949,315.104004 264.600677,314.874847 262.625031,314.418121 
	C263.297760,316.884125 263.729889,318.860535 264.377502,320.763641 
	C265.911316,325.270905 263.986908,327.941650 259.233795,327.841614 
	C245.325607,327.548950 231.410080,327.450317 217.512711,326.894348 
	C213.476028,326.732880 209.264618,325.826141 205.552826,324.264130 
	C202.547852,322.999573 201.385147,322.346832 201.463928,326.363708 
	C201.477585,327.060699 199.493393,327.796906 198.347839,328.204620 
	C198.174484,327.927765 198.085281,327.961304 197.996078,327.994843 
	C197.043320,327.599457 196.090561,327.204041 195.381287,326.352966 
	C196.141159,325.003387 196.657547,324.109497 197.173935,323.215607 
	C197.173935,323.215607 197.103104,323.064758 197.502899,323.153137 
	C198.302811,322.518829 198.702942,321.796143 199.103058,321.073486 
	C199.103058,321.073486 198.993561,321.041504 199.376312,321.090271 
	C200.213791,320.463837 200.668518,319.788666 201.123245,319.113495 
	C201.123245,319.113495 201.000000,319.001221 201.380722,319.046509 
	C202.284973,318.244293 202.808502,317.396759 203.332031,316.549225 
	C203.332016,316.549225 203.500351,316.429474 203.776047,316.335999 
	C204.365631,316.047852 204.436462,315.787323 204.264236,315.460938 
	C204.264236,315.460938 204.321274,315.363220 204.683411,315.328796 
	C205.439575,314.615936 205.833603,313.937500 206.227631,313.259033 
	C206.227646,313.259033 206.191711,313.162262 206.532761,313.180786 
	C206.975830,312.860382 207.077850,312.521454 207.179871,312.182556 
	C207.179871,312.182556 207.003723,312.108368 207.379456,312.108215 
	C207.869431,311.770752 207.983658,311.433441 208.097900,311.096100 
	C208.097900,311.096100 208.000000,311.001221 208.406647,311.063110 
	C212.200806,307.054840 215.588318,302.984650 218.975845,298.914490 
	C227.714706,288.922485 236.430008,278.909729 245.207077,268.951416 
	C247.775482,266.037354 250.519638,263.278198 253.579254,260.705627 
	C255.377304,274.147186 256.761993,287.333069 258.189880,300.514221 
	C258.767853,305.849762 259.440063,311.175079 260.069397,316.505066 
	C260.578644,316.497528 261.087921,316.489960 261.597198,316.482422 
	C262.124390,308.672058 262.651581,300.861664 263.409485,293.305542 
	C263.953796,296.649048 264.267395,299.738312 264.650482,303.512085 
	C268.173676,300.807587 270.333282,300.998108 271.004883,305.010986 
z"/>
<path fill="#F3F6F7" opacity="1.000000" stroke="none" 
	d="
M408.485046,315.460693 
	C408.485046,315.460693 408.596771,315.760498 408.707550,316.176117 
	C409.117188,316.802826 409.416046,317.013916 409.714905,317.225006 
	C409.714905,317.225006 409.967865,317.115479 409.744629,317.507141 
	C409.704926,318.555389 409.888428,319.211945 409.870789,320.118469 
	C405.943848,318.556305 400.931274,317.680878 403.636505,311.537872 
	C397.662170,310.250305 396.821075,306.235291 397.732361,301.189789 
	C397.132172,301.117340 396.531982,301.044891 395.931824,300.972443 
	C395.430511,302.651154 394.929230,304.329834 394.195953,306.785461 
	C393.509796,306.477478 392.103912,306.161652 391.143616,305.330811 
	C390.083374,304.413483 389.431702,303.023987 388.602081,301.840179 
	C388.170410,301.916901 387.738770,301.993652 387.307129,302.070374 
	C387.725189,306.791046 385.073669,307.084198 381.673004,307.053802 
	C367.396759,306.926300 353.116058,307.151794 338.842926,306.905182 
	C334.698395,306.833588 332.122986,307.791656 331.427216,312.134979 
	C330.849823,315.739197 328.830841,318.129364 325.102234,318.636719 
	C322.945465,313.518890 320.879517,308.766724 318.866669,303.635498 
	C316.989014,296.834229 315.058228,290.412048 313.446198,283.929077 
	C313.838013,282.904419 313.964508,281.940857 313.971375,280.976501 
	C313.981049,279.611023 313.465729,278.010529 314.025604,276.966980 
	C314.360962,276.341888 316.829834,276.028381 317.425842,276.573700 
	C318.294983,277.368927 318.921600,279.211670 318.630798,280.346161 
	C317.738556,283.827454 319.841400,283.969238 322.157928,283.984589 
	C328.212311,284.024689 334.267120,283.998108 341.367706,283.998108 
	C340.633820,280.002197 340.027679,276.701843 339.421539,273.401459 
	C341.820374,274.323669 344.438538,275.712463 344.621765,277.370361 
	C345.076447,281.484283 347.526978,281.071167 350.497314,281.123352 
	C352.874298,285.446564 354.961243,289.579468 357.048187,293.712341 
	C357.402985,293.561920 357.757812,293.411499 358.112610,293.261078 
	C355.856171,285.612152 353.599762,277.963257 351.229034,269.926758 
	C352.825623,269.926758 353.953766,269.926758 355.081879,269.926758 
	C355.081879,269.926758 354.997040,269.987274 355.022552,270.144104 
	C355.380249,270.226410 355.712463,270.151855 356.044647,270.077271 
	C366.357239,273.776825 376.762756,277.245453 386.918945,281.333557 
	C389.553528,282.394043 392.022003,285.032257 393.508545,287.566498 
	C398.449005,295.988922 402.907715,304.693970 407.633850,313.890381 
	C407.972778,314.813660 408.228912,315.137177 408.485046,315.460693 
z"/>
<path fill="#EBEDEE" opacity="1.000000" stroke="none" 
	d="
M121.986992,357.993225 
	C125.777489,357.330627 129.625488,356.883575 133.329132,355.895477 
	C134.738953,355.519348 135.678040,353.614624 137.086075,352.929260 
	C138.487610,352.247131 140.879715,351.390472 141.682053,352.039276 
	C147.673386,356.883698 153.185608,357.540985 159.936996,353.710846 
	C160.479340,353.403137 161.131027,353.288147 161.880920,353.032837 
	C163.598389,355.673126 165.286224,360.865021 167.526840,353.486694 
	C167.596390,353.257660 169.453308,353.571442 170.603699,354.135071 
	C166.780762,359.256256 162.732864,363.795715 158.928711,368.530945 
	C157.362534,370.480438 156.320740,372.851196 155.040436,375.030334 
	C155.040421,375.030334 155.001297,375.002075 154.643677,375.004913 
	C151.724319,376.373566 149.193726,377.802551 146.591217,379.085663 
	C144.437057,380.147644 142.198044,381.037476 139.958862,381.725616 
	C139.623734,381.130280 139.326416,380.812958 139.029099,380.495636 
	C138.853607,380.699402 138.678116,380.903198 138.502594,381.106995 
	C139.002930,381.403564 139.503265,381.700165 139.992950,382.380096 
	C139.442627,386.100189 137.338623,385.036499 135.533051,384.226929 
	C128.422806,381.038849 120.985641,381.989349 113.577568,382.285980 
	C111.342598,382.375458 109.045135,382.330109 106.870728,381.885101 
	C105.834007,381.672913 104.378609,380.463074 104.261154,379.556366 
	C104.106842,378.365143 104.939247,376.944794 105.604652,375.768555 
	C107.307983,372.757477 109.153694,369.826935 110.942474,366.864197 
	C112.246979,365.459991 113.551468,364.055756 115.345894,362.317322 
	C117.886215,360.653168 119.936600,359.323181 121.986992,357.993225 
z"/>
<path fill="#E1E5EA" opacity="1.000000" stroke="none" 
	d="
M327.812744,363.084045 
	C332.930206,363.255341 334.230164,367.579315 335.226044,371.069122 
	C336.905304,376.953827 339.300079,378.455750 344.601013,375.549438 
	C345.281036,375.176636 346.233002,374.938812 346.970306,375.085144 
	C359.879944,377.647400 372.892731,375.373260 385.849243,375.871613 
	C391.165161,376.076080 396.533783,374.799255 401.886566,374.279999 
	C402.637207,374.207184 403.685852,374.359528 404.170990,374.838562 
	C408.839172,379.448212 414.701721,377.048309 418.164886,377.813477 
	C421.992615,374.540619 424.585876,372.155945 427.359039,370.003082 
	C429.740875,368.154053 432.247498,366.431549 434.849976,364.911682 
	C436.997864,363.657379 438.523773,359.252838 441.991241,363.505402 
	C435.677490,368.714569 429.357117,373.587708 423.020111,378.439209 
	C417.963226,382.310699 412.886078,386.155762 407.060730,389.931274 
	C405.358063,389.624634 404.412933,389.204529 403.467010,389.202728 
	C384.179382,389.165558 364.891602,389.164948 345.604004,389.212677 
	C344.705353,389.214905 343.807953,389.733459 342.909973,390.011536 
	C340.299500,385.942017 337.689056,381.872467 334.967377,377.167969 
	C334.579193,376.340485 334.302277,376.147980 334.025330,375.955475 
	C334.025330,375.955475 334.004333,376.004639 334.093597,375.631500 
	C332.639221,372.732666 331.095612,370.206970 329.552002,367.681244 
	C329.552002,367.681244 329.508148,367.536346 329.485504,367.145447 
	C328.912811,365.531036 328.362762,364.307556 327.812744,363.084045 
z"/>
<path fill="#E1E5EA" opacity="1.000000" stroke="none" 
	d="
M451.878296,372.050476 
	C453.809845,372.797363 455.741364,373.544250 458.092682,374.453430 
	C458.278229,373.693878 458.572845,372.487701 459.004974,370.718567 
	C469.357422,376.162384 480.389496,373.370422 491.132538,373.957306 
	C493.938324,374.110596 497.061981,374.122070 497.037811,369.390594 
	C497.103088,368.915131 497.272827,368.764069 497.543274,368.920837 
	C498.741638,369.835297 499.669586,370.593048 500.597504,371.350769 
	C500.597504,371.350769 500.728210,371.225830 500.680908,371.642151 
	C502.195557,373.830963 503.757477,375.603455 505.319427,377.375946 
	C505.319427,377.375946 505.412842,377.569336 505.530212,377.946899 
	C506.654877,379.304626 507.662231,380.284760 508.669586,381.264893 
	C508.669586,381.264893 508.800079,381.113647 508.738159,381.521362 
	C509.139740,382.280884 509.603210,382.632721 510.066681,382.984558 
	C511.356750,384.669983 512.646851,386.355408 513.511475,388.509094 
	C499.097168,389.029816 485.107239,389.178070 471.120758,389.020721 
	C469.246735,388.999695 466.976990,387.856781 465.600311,386.508514 
	C460.856476,381.862579 456.427307,376.895325 451.878296,372.050476 
z"/>
<path fill="#E1E5EA" opacity="1.000000" stroke="none" 
	d="
M218.071503,364.369293 
	C219.121017,364.828949 220.636566,365.495819 220.957855,366.532715 
	C221.976395,369.820007 222.549072,373.245422 223.296555,376.628418 
	C225.196518,376.427307 227.202805,376.041016 229.210922,376.031067 
	C240.987442,375.972809 252.764572,375.972229 264.541077,376.032135 
	C266.501495,376.042114 268.473114,376.363892 270.416443,376.682648 
	C274.034790,377.276215 276.839233,376.788757 278.323944,372.729584 
	C279.078003,370.667908 280.869873,368.985809 282.588531,367.400421 
	C283.041656,368.125244 283.098877,368.581787 283.156067,369.038300 
	C279.835144,375.071320 276.514221,381.104309 272.652374,387.611359 
	C270.390839,388.462708 268.674561,389.141235 266.948944,389.165802 
	C259.026672,389.278656 251.100708,389.128174 243.178101,389.229736 
	C236.774063,389.311798 230.372894,389.618469 223.970459,389.825500 
	C223.750183,389.681793 223.553909,389.510559 223.308228,388.728363 
	C222.185989,381.847504 221.193787,375.539490 220.020187,369.265411 
	C219.864990,368.435730 218.785477,367.778992 218.134048,367.042145 
	C218.086349,366.276733 218.038651,365.511292 218.071503,364.369293 
z"/>
<path fill="#DAE0E7" opacity="1.000000" stroke="none" 
	d="
M110.590958,366.911865 
	C109.153694,369.826935 107.307983,372.757477 105.604652,375.768555 
	C104.939247,376.944794 104.106842,378.365143 104.261154,379.556366 
	C104.378609,380.463074 105.834007,381.672913 106.870728,381.885101 
	C109.045135,382.330109 111.342598,382.375458 113.577568,382.285980 
	C120.985641,381.989349 128.422806,381.038849 135.533051,384.226929 
	C137.338623,385.036499 139.442627,386.100189 139.991150,382.381714 
	C140.000000,382.000000 139.996643,382.003632 139.996643,382.003632 
	C142.198044,381.037476 144.437057,380.147644 146.591217,379.085663 
	C149.193726,377.802551 151.724319,376.373566 154.659393,375.023346 
	C150.566315,379.874146 146.099899,384.709351 140.888992,389.602478 
	C122.825951,389.623260 105.507408,389.586151 88.188858,389.549042 
	C88.792793,388.245880 89.083389,386.613403 90.051147,385.692627 
	C96.701340,379.364990 103.493187,373.186218 110.590958,366.911865 
z"/>
<path fill="#5F80A9" opacity="1.000000" stroke="none" 
	d="
M263.178772,293.051300 
	C262.651581,300.861664 262.124390,308.672058 261.597198,316.482422 
	C261.087921,316.489960 260.578644,316.497528 260.069397,316.505066 
	C259.440063,311.175079 258.767853,305.849762 258.189880,300.514221 
	C256.761993,287.333069 255.377304,274.147186 253.874054,260.567322 
	C257.350586,260.140228 256.889771,262.782257 257.043121,265.062012 
	C257.673126,274.426086 258.304321,283.790253 259.011261,293.148621 
	C259.075317,293.996246 259.684265,294.802734 260.402283,296.468262 
	C261.039307,291.728699 260.893005,287.712799 262.181580,284.227356 
	C265.493500,275.268768 269.359650,266.509918 273.152435,257.735291 
	C281.419250,238.609940 289.746368,219.510452 298.128723,200.435471 
	C299.639221,196.998199 301.456390,193.685913 303.314514,190.419754 
	C303.666351,189.801254 304.881134,189.673660 305.836029,189.679352 
	C305.974335,190.039139 305.812531,190.231506 305.525238,190.397888 
	C303.568481,194.174683 301.831879,197.755753 300.240875,201.400421 
	C292.085876,220.081604 283.968353,238.779160 275.606995,257.658112 
	C275.286377,258.222595 275.196503,258.599945 274.965302,259.186279 
	C274.775757,259.556396 274.727539,259.717529 274.445862,260.103638 
	C273.793854,261.550629 273.375336,262.772644 272.747620,264.243134 
	C271.986877,265.886383 271.435333,267.281158 270.669312,268.829102 
	C270.361938,269.310944 270.269043,269.639648 270.064026,270.157990 
	C269.951904,270.347626 269.918732,270.786957 269.719818,270.921082 
	C269.291718,271.314636 269.211823,271.613892 269.127686,272.265289 
	C268.793243,273.004974 268.612305,273.432312 268.241760,274.138550 
	C265.390381,280.357422 262.072266,286.125763 263.178772,293.051300 
z"/>
<path fill="#5F80A9" opacity="1.000000" stroke="none" 
	d="
M354.921417,269.550659 
	C353.953766,269.926758 352.825623,269.926758 351.229034,269.926758 
	C353.599762,277.963257 355.856171,285.612152 358.112610,293.261078 
	C357.757812,293.411499 357.402985,293.561920 357.048187,293.712341 
	C354.961243,289.579468 352.874298,285.446564 350.431305,280.766541 
	C348.737030,278.209076 347.098114,276.333130 346.126465,274.158997 
	C344.391144,270.276123 343.375671,266.057434 341.505829,262.250977 
	C329.692688,238.202911 317.727509,214.229538 305.812531,190.231506 
	C305.812531,190.231506 305.974335,190.039139 306.055725,189.943405 
	C307.107880,191.023697 308.341217,192.067383 309.010376,193.395370 
	C321.554840,218.291214 334.036377,243.218781 346.515656,268.147430 
	C347.426025,269.966003 348.217896,271.843872 349.662659,275.000092 
	C349.938324,272.115906 350.070038,270.737976 350.242584,268.932465 
	C351.899261,269.021240 353.330109,269.097900 354.921417,269.550659 
z"/>
<path fill="#DAE0E7" opacity="1.000000" stroke="none" 
	d="
M155.368332,374.916138 
	C156.320740,372.851196 157.362534,370.480438 158.928711,368.530945 
	C162.732864,363.795715 166.780762,359.256256 170.872635,354.326141 
	C172.121735,354.989838 173.228653,355.965363 174.668427,357.347229 
	C176.998383,360.678650 179.098831,363.539612 180.965347,366.545776 
	C183.098068,369.980682 185.022644,373.544861 186.876556,376.772369 
	C191.796204,373.024170 196.387741,369.525970 200.997650,366.307678 
	C201.028961,366.774200 201.041901,366.960785 201.054840,367.147369 
	C197.480637,370.944489 193.787277,374.638184 190.371658,378.572998 
	C187.855545,381.471588 186.356155,380.930756 184.516953,377.881836 
	C180.612549,371.409363 176.450638,365.092224 172.191315,358.392090 
	C166.296494,364.256470 160.996368,369.529205 155.368332,374.916138 
z"/>
<path fill="#2D6E9A" opacity="1.000000" stroke="none" 
	d="
M451.623688,371.945190 
	C456.427307,376.895325 460.856476,381.862579 465.600311,386.508514 
	C466.976990,387.856781 469.246735,388.999695 471.120758,389.020721 
	C485.107239,389.178070 499.097168,389.029816 513.536499,388.837708 
	C512.886902,389.778442 511.802277,391.779877 510.684326,391.798676 
	C497.553345,392.019409 484.412415,392.129211 471.287079,391.780548 
	C468.788910,391.714172 465.865936,390.027710 463.972656,388.217041 
	C458.962128,383.425140 454.394257,378.168610 449.699707,373.051605 
	C449.315277,372.632568 449.306335,371.868988 449.353088,370.954651 
	C450.178558,371.042542 450.773804,371.441254 451.623688,371.945190 
z"/>
<path fill="#2D6E9A" opacity="1.000000" stroke="none" 
	d="
M342.924561,390.463867 
	C343.807953,389.733459 344.705353,389.214905 345.604004,389.212677 
	C364.891602,389.164948 384.179382,389.165558 403.467010,389.202728 
	C404.412933,389.204529 405.358063,389.624634 406.708191,389.991943 
	C405.704468,390.739258 404.300690,391.859619 402.887146,391.872101 
	C383.487549,392.043182 364.086609,392.071960 344.686005,392.066681 
	C344.103607,392.066528 343.521423,391.316559 342.924561,390.463867 
z"/>
<path fill="#2D6E9A" opacity="1.000000" stroke="none" 
	d="
M224.087616,390.241211 
	C230.372894,389.618469 236.774063,389.311798 243.178101,389.229736 
	C251.100708,389.128174 259.026672,389.278656 266.948944,389.165802 
	C268.674561,389.141235 270.390839,388.462708 272.506104,387.922455 
	C270.833221,389.153748 268.799011,391.694275 266.692657,391.755554 
	C253.326141,392.144409 239.943588,392.008362 226.566757,391.949188 
	C225.777527,391.945679 224.992020,391.106934 224.087616,390.241211 
z"/>
<path fill="#2D6E9A" opacity="1.000000" stroke="none" 
	d="
M88.175148,389.999756 
	C105.507408,389.586151 122.825951,389.623260 140.612762,389.777161 
	C139.330490,390.579010 137.586273,391.839203 135.828415,391.858551 
	C121.022331,392.021667 106.213547,391.989288 91.406319,391.896790 
	C90.321724,391.890045 89.242928,390.954315 88.175148,389.999756 
z"/>
<path fill="#2D6E9A" opacity="1.000000" stroke="none" 
	d="
M283.529480,368.977051 
	C283.098877,368.581787 283.041656,368.125244 282.919556,367.328735 
	C282.854614,366.988708 283.001495,366.580933 283.325043,366.218079 
	C284.420349,364.835388 285.192139,363.815491 285.963898,362.795624 
	C299.611694,362.852692 313.259521,362.909790 327.360046,363.025452 
	C328.362762,364.307556 328.912811,365.531036 329.441101,367.084167 
	C324.331573,364.114014 318.613342,364.982880 313.037628,364.956207 
	C307.061310,364.927612 301.084747,364.933014 295.108398,364.955444 
	C290.921234,364.971161 286.335114,363.912445 283.529480,368.977051 
z"/>
<path fill="#DAE0E7" opacity="1.000000" stroke="none" 
	d="
M122.150528,357.694794 
	C119.936600,359.323181 117.886215,360.653168 115.485992,362.000610 
	C121.535904,355.400482 127.935669,348.782867 134.642441,342.021515 
	C134.655426,343.332794 134.361389,344.787842 133.753677,346.737885 
	C132.951767,347.806274 132.463531,348.379669 131.975281,348.953033 
	C128.754883,351.767487 125.534477,354.581940 122.150528,357.694794 
z"/>
<path fill="#2D6E9A" opacity="1.000000" stroke="none" 
	d="
M218.071655,367.448120 
	C218.785477,367.778992 219.864990,368.435730 220.020187,369.265411 
	C221.193787,375.539490 222.185989,381.847504 223.178802,388.581421 
	C222.384018,386.739471 221.473984,384.500214 220.942337,382.174408 
	C219.856842,377.425598 218.974991,372.630280 218.071655,367.448120 
z"/>
<path fill="#5F80A9" opacity="1.000000" stroke="none" 
	d="
M218.631927,298.980713 
	C215.588318,302.984650 212.200806,307.054840 208.453995,311.112366 
	C209.292221,305.221313 214.220291,302.497925 218.631927,298.980713 
z"/>
<path fill="#5F80A9" opacity="1.000000" stroke="none" 
	d="
M190.908340,315.727753 
	C187.994614,310.576294 185.119812,305.039795 182.152832,299.144775 
	C185.022858,304.305054 187.985062,309.823914 190.908340,315.727753 
z"/>
<path fill="#E1E5EA" opacity="1.000000" stroke="none" 
	d="
M497.019470,368.992126 
	C490.785706,368.792297 489.945404,367.388000 492.520081,361.066345 
	C494.145294,362.782074 495.442413,364.572510 496.918610,366.953735 
	C497.156067,367.951050 497.214447,368.357574 497.272827,368.764069 
	C497.272827,368.764069 497.103088,368.915131 497.019470,368.992126 
z"/>
<path fill="#2D6E9A" opacity="1.000000" stroke="none" 
	d="
M410.071930,319.868500 
	C409.888428,319.211945 409.704926,318.555389 409.616913,317.567566 
	C411.286407,319.447693 412.715240,321.786407 414.496002,323.816406 
	C415.379456,324.823547 416.909790,325.263275 418.474121,325.935974 
	C417.953247,328.038391 417.441132,331.113007 414.225098,326.911804 
	C413.657623,326.103973 413.401001,325.804779 413.096954,325.184204 
	C412.056976,323.198090 411.064453,321.533295 410.071930,319.868500 
z"/>
<path fill="#E1E5EA" opacity="1.000000" stroke="none" 
	d="
M443.058899,364.429016 
	C447.896820,361.333496 447.875275,365.629089 448.650452,368.678833 
	C447.927979,368.977753 447.518250,368.939392 447.108551,368.901062 
	C445.795013,367.511017 444.481476,366.120972 443.058899,364.429016 
z"/>
<path fill="#5F80A9" opacity="1.000000" stroke="none" 
	d="
M196.820282,323.109589 
	C196.657547,324.109497 196.141159,325.003387 195.315186,326.024475 
	C194.205399,324.559448 193.405228,322.967163 192.299988,321.182983 
	C191.994919,320.991089 192.059616,320.950653 192.059616,320.950653 
	C191.933548,320.240814 191.807480,319.531006 191.767761,318.468872 
	C193.391602,319.745575 194.929108,321.374573 196.820282,323.109589 
z"/>
<path fill="#2D6E9A" opacity="1.000000" stroke="none" 
	d="
M329.348511,368.014954 
	C331.095612,370.206970 332.639221,372.732666 334.118530,375.621704 
	C332.417786,373.439606 330.781403,370.894135 329.348511,368.014954 
z"/>
<path fill="#2D6E9A" opacity="1.000000" stroke="none" 
	d="
M505.396118,377.035858 
	C503.757477,375.603455 502.195557,373.830963 500.644592,371.724945 
	C502.261322,373.159546 503.867035,374.927643 505.396118,377.035858 
z"/>
<path fill="#2D6E9A" opacity="1.000000" stroke="none" 
	d="
M487.028503,353.677734 
	C486.076141,353.192963 485.092377,352.381805 483.947693,351.290375 
	C484.856873,351.790527 485.926971,352.570923 487.028503,353.677734 
z"/>
<path fill="#2D6E9A" opacity="1.000000" stroke="none" 
	d="
M508.770233,380.904236 
	C507.662231,380.284760 506.654877,379.304626 505.614441,378.013519 
	C506.677856,378.649567 507.774353,379.596588 508.770233,380.904236 
z"/>
<path fill="#2D6E9A" opacity="1.000000" stroke="none" 
	d="
M497.543274,368.920837 
	C497.214447,368.357574 497.156067,367.951050 497.100769,367.236511 
	C498.334290,368.173187 499.564728,369.417938 500.696320,371.006714 
	C499.669586,370.593048 498.741638,369.835297 497.543274,368.920837 
z"/>
<path fill="#EDEFF0" opacity="1.000000" stroke="none" 
	d="
M201.342758,367.019379 
	C201.041901,366.960785 201.028961,366.774200 201.057663,365.968262 
	C202.033813,364.866974 202.968338,364.385040 203.902863,363.903107 
	C203.902863,363.903107 203.995178,363.995941 204.041168,364.042542 
	C203.268311,365.023224 202.449493,365.957306 201.342758,367.019379 
z"/>
<path fill="#5F80A9" opacity="1.000000" stroke="none" 
	d="
M203.016022,316.359802 
	C202.808502,317.396759 202.284973,318.244293 201.442352,319.103577 
	C201.648849,318.133698 202.174438,317.152008 203.016022,316.359802 
z"/>
<path fill="#5F80A9" opacity="1.000000" stroke="none" 
	d="
M200.801666,319.151062 
	C200.668518,319.788666 200.213791,320.463837 199.425537,321.119385 
	C199.554718,320.462738 200.017410,319.825653 200.801666,319.151062 
z"/>
<path fill="#2D6E9A" opacity="1.000000" stroke="none" 
	d="
M447.165344,369.237213 
	C447.518250,368.939392 447.927979,368.977753 448.643555,369.058533 
	C449.000153,369.414581 449.126038,369.694458 449.364136,370.169739 
	C448.674835,370.123749 447.948486,369.848541 447.165344,369.237213 
z"/>
<path fill="#5F80A9" opacity="1.000000" stroke="none" 
	d="
M205.893005,313.230103 
	C205.833603,313.937500 205.439575,314.615936 204.727997,315.294006 
	C204.793106,314.596130 205.175751,313.898621 205.893005,313.230103 
z"/>
<path fill="#5F80A9" opacity="1.000000" stroke="none" 
	d="
M198.787445,321.122009 
	C198.702942,321.796143 198.302811,322.518829 197.558304,323.215332 
	C197.633224,322.516296 198.052536,321.843384 198.787445,321.122009 
z"/>
<path fill="#5F80A9" opacity="1.000000" stroke="none" 
	d="
M191.898132,317.778503 
	C191.477478,317.648926 191.105606,317.190735 190.797638,316.418701 
	C191.223343,316.553192 191.585129,317.001587 191.898132,317.778503 
z"/>
<path fill="#2D6E9A" opacity="1.000000" stroke="none" 
	d="
M510.018311,382.650848 
	C509.603210,382.632721 509.139740,382.280884 508.697144,381.612427 
	C509.135315,381.636230 509.552643,381.976685 510.018311,382.650848 
z"/>
<path fill="#2D6E9A" opacity="1.000000" stroke="none" 
	d="
M334.023956,376.225586 
	C334.302277,376.147980 334.579193,376.340485 334.863037,376.814758 
	C334.587463,376.896271 334.305023,376.696014 334.023956,376.225586 
z"/>
<path fill="#5F80A9" opacity="1.000000" stroke="none" 
	d="
M355.808594,269.984009 
	C355.712463,270.151855 355.380249,270.226410 355.056671,270.104584 
	C355.234406,269.902374 355.403503,269.896515 355.808594,269.984009 
z"/>
<path fill="#2D6E9A" opacity="1.000000" stroke="none" 
	d="
M408.628479,315.150818 
	C408.228912,315.137177 407.972778,314.813660 407.816956,314.184692 
	C408.202148,314.199860 408.487000,314.520416 408.628479,315.150818 
z"/>
<path fill="#5F80A9" opacity="1.000000" stroke="none" 
	d="
M207.789948,311.093018 
	C207.983658,311.433441 207.869431,311.770752 207.471680,312.132080 
	C207.286118,311.800659 207.384064,311.445312 207.789948,311.093018 
z"/>
<path fill="#5F80A9" opacity="1.000000" stroke="none" 
	d="
M206.890137,312.194489 
	C207.077850,312.521454 206.975830,312.860382 206.578430,313.204834 
	C206.388840,312.875732 206.494629,312.541077 206.890137,312.194489 
z"/>
<path fill="#2D6E9A" opacity="1.000000" stroke="none" 
	d="
M409.777191,316.917053 
	C409.416046,317.013916 409.117188,316.802826 408.820770,316.289124 
	C409.161957,316.194061 409.500732,316.401581 409.777191,316.917053 
z"/>
<path fill="#5F80A9" opacity="1.000000" stroke="none" 
	d="
M203.972275,315.366547 
	C204.436462,315.787323 204.365631,316.047852 203.829041,316.247345 
	C203.541718,316.028320 203.443268,315.806610 203.428452,315.579498 
	C203.422134,315.482941 203.591034,315.374939 203.972275,315.366547 
z"/>
<path fill="#F2F3F3" opacity="1.000000" stroke="none" 
	d="
M409.870789,320.118469 
	C411.064453,321.533295 412.056976,323.198090 413.056030,325.553284 
	C413.041321,326.489441 413.020081,326.735138 412.998840,326.980804 
	C413.249786,328.806335 413.537354,330.627869 413.739227,332.458801 
	C413.879608,333.732361 413.902374,335.018860 413.977722,336.299591 
	C412.927551,335.819794 411.608398,335.590942 410.880432,334.810547 
	C409.095001,332.896698 407.582184,330.728607 405.959656,328.662781 
	C405.326111,328.918671 404.692535,329.174591 404.058990,329.430481 
	C404.472748,331.733215 404.886505,334.035919 405.144440,335.471344 
	C384.150208,334.444611 362.750305,335.255890 341.371674,335.003021 
	C339.428741,334.980042 337.485291,335.000000 336.271851,335.000000 
	C335.283722,332.194122 335.105835,329.114960 333.759796,328.468597 
	C331.727417,327.492706 328.880096,328.214050 326.379120,328.214050 
	C326.338043,328.730072 326.296936,329.246063 326.255829,329.762085 
	C321.110260,326.592499 316.134918,323.092102 310.777069,320.335022 
	C303.696136,316.691254 296.341919,313.568695 289.024200,310.409637 
	C288.267334,310.082916 286.943176,310.983917 285.912628,311.391937 
	C280.140778,313.676849 276.341827,311.961609 273.344055,304.994293 
	C276.251038,303.881958 279.113953,303.042786 281.962891,303.087738 
	C287.218842,303.170685 292.465576,303.791565 293.545258,296.584534 
	C293.583374,296.330292 294.393921,296.191742 294.920471,296.456207 
	C294.980286,298.730682 295.251648,300.608032 294.888641,302.353424 
	C294.110260,306.095795 295.332611,308.047424 298.845154,309.923798 
	C305.669708,313.569458 312.007843,318.116028 318.647552,322.123627 
	C320.423737,323.195679 322.561554,323.668579 324.925262,324.565216 
	C325.038239,322.218201 325.115631,320.610321 325.193024,319.002441 
	C328.830841,318.129364 330.849823,315.739197 331.427216,312.134979 
	C332.122986,307.791656 334.698395,306.833588 338.842926,306.905182 
	C353.116058,307.151794 367.396759,306.926300 381.673004,307.053802 
	C385.073669,307.084198 387.725189,306.791046 387.307129,302.070374 
	C387.738770,301.993652 388.170410,301.916901 388.602081,301.840179 
	C389.431702,303.023987 390.083374,304.413483 391.143616,305.330811 
	C392.103912,306.161652 393.509796,306.477478 394.195953,306.785461 
	C394.929230,304.329834 395.430511,302.651154 395.931824,300.972443 
	C396.531982,301.044891 397.132172,301.117340 397.732361,301.189789 
	C396.821075,306.235291 397.662170,310.250305 403.636505,311.537872 
	C400.931274,317.680878 405.943848,318.556305 409.870789,320.118469 
M335.230896,310.101013 
	C335.230896,311.879578 335.230896,313.658142 335.230896,315.436707 
	C338.568939,310.871796 338.568939,310.871796 335.230896,310.101013 
M329.284119,323.081085 
	C329.772369,323.027710 330.260620,322.974335 330.748901,322.920990 
	C330.636292,322.486115 330.523682,322.051270 330.411072,321.616394 
	C329.993256,321.910431 329.575439,322.204498 329.284119,323.081085 
z"/>
<path fill="#F3F6F7" opacity="1.000000" stroke="none" 
	d="
M294.844482,295.999268 
	C294.393921,296.191742 293.583374,296.330292 293.545258,296.584534 
	C292.465576,303.791565 287.218842,303.170685 281.962891,303.087738 
	C279.113953,303.042786 276.251038,303.881958 273.194397,304.666138 
	C272.552216,305.008667 272.110107,305.007385 271.336426,305.008545 
	C270.333282,300.998108 268.173676,300.807587 264.650482,303.512085 
	C264.267395,299.738312 263.953796,296.649048 263.409485,293.305542 
	C262.072266,286.125763 265.390381,280.357422 268.652008,274.208252 
	C274.102692,277.930328 278.122437,275.431671 282.702881,271.372406 
	C284.681854,275.013977 286.405090,278.184937 288.620209,282.261047 
	C291.946533,277.355072 289.928680,271.474091 292.316101,266.667023 
	C292.999725,271.352417 293.038055,276.008911 292.983307,280.664307 
	C292.956635,282.933441 293.349457,284.422150 296.297241,283.084869 
	C296.733337,283.481842 296.920990,283.781494 297.058289,284.467346 
	C296.286774,288.568787 295.565613,292.284058 294.844482,295.999268 
z"/>
<path fill="#EBEDEE" opacity="1.000000" stroke="none" 
	d="
M203.940674,363.535522 
	C202.968338,364.385040 202.033813,364.866974 201.039307,365.688354 
	C196.387741,369.525970 191.796204,373.024170 186.876556,376.772369 
	C185.022644,373.544861 183.098068,369.980682 180.965347,366.545776 
	C179.098831,363.539612 176.998383,360.678650 174.996979,357.383972 
	C175.720856,356.442505 176.676788,355.235077 177.140518,355.401245 
	C180.299301,356.533142 182.652328,355.670319 185.260849,353.642883 
	C187.682159,351.760956 193.525635,355.054932 195.899521,359.178375 
	C196.370117,359.995819 196.780792,360.847748 197.722427,362.643799 
	C199.393677,360.673981 200.658340,359.183411 201.961502,357.346436 
	C202.000000,357.000000 202.000610,356.998779 202.000610,356.998779 
	C203.666977,356.457428 205.333344,355.916107 206.999710,355.374786 
	C207.381378,355.603882 207.763031,355.833008 208.144684,356.062103 
	C206.755966,358.430725 205.367233,360.799316 203.940674,363.535522 
z"/>
<path fill="#F2F3F3" opacity="1.000000" stroke="none" 
	d="
M192.022858,320.963196 
	C191.108887,327.847137 184.948929,325.917328 181.047836,326.756775 
	C176.295258,327.779480 171.148102,327.152252 166.185883,326.925934 
	C164.219299,326.836243 162.291031,325.906433 160.345337,325.359100 
	C160.781982,324.010834 160.820129,322.072205 161.745316,321.447632 
	C163.271057,320.417694 165.370117,320.237122 168.381531,319.363922 
	C168.388000,319.314636 169.001770,317.850922 168.661819,316.659332 
	C167.381119,312.170319 169.136963,311.707397 172.954483,312.758301 
	C175.809494,313.544281 179.149231,314.771881 180.515030,309.296112 
	C182.598190,313.677277 188.431381,314.176971 187.408905,319.781677 
	C187.378967,319.945740 189.880493,320.571625 191.630661,320.966431 
	C192.059616,320.950653 191.994919,320.991089 192.022858,320.963196 
z"/>
<path fill="#F2F3F3" opacity="1.000000" stroke="none" 
	d="
M422.506897,333.626373 
	C423.889557,334.241272 425.067078,334.519745 425.960144,335.181854 
	C426.458252,335.551147 426.817657,336.664795 426.631470,337.249359 
	C426.428894,337.885468 425.128113,338.833557 424.981201,338.725739 
	C422.966766,337.247375 420.919159,335.750671 419.219055,333.939941 
	C418.567352,333.245819 418.774658,331.745178 418.590546,330.612061 
	C418.995087,330.483551 419.399628,330.355042 419.804138,330.226532 
	C420.597046,331.301117 421.389954,332.375702 422.506897,333.626373 
z"/>
<path fill="#EBEDEE" opacity="1.000000" stroke="none" 
	d="
M201.999695,357.000610 
	C201.502975,357.000549 200.933289,357.159149 200.523285,356.970581 
	C199.043198,356.289917 197.616852,355.492432 196.170227,354.739075 
	C196.958450,353.872864 197.746674,353.006622 198.534882,352.140381 
	C199.706604,353.549652 200.878342,354.958923 202.025330,356.683472 
	C202.000610,356.998779 202.000000,357.000000 201.999695,357.000610 
z"/>
<path fill="#EBEDEE" opacity="1.000000" stroke="none" 
	d="
M324.117920,352.033386 
	C325.580322,352.416748 326.660736,352.814575 327.741119,353.212372 
	C327.683685,353.682556 327.626251,354.152740 327.568817,354.622925 
	C325.657959,354.738525 323.747070,354.854095 321.836182,354.969666 
	C321.644318,354.584717 321.452454,354.199799 321.260620,353.814880 
	C322.085693,353.225861 322.910797,352.636841 324.117920,352.033386 
z"/>
<path fill="#EBEDEE" opacity="1.000000" stroke="none" 
	d="
M211.566345,354.422791 
	C209.452271,353.430695 209.452271,353.430695 213.726181,350.665680 
	C213.093521,351.846222 212.460876,353.026794 211.566345,354.422791 
z"/>
<path fill="#EBEDEE" opacity="1.000000" stroke="none" 
	d="
M132.180511,349.149353 
	C132.463531,348.379669 132.951767,347.806274 133.698303,347.109009 
	C134.479477,347.276215 135.002319,347.567322 135.525162,347.858429 
	C134.478668,348.354156 133.432190,348.849915 132.180511,349.149353 
z"/>
<path fill="#F3F6F7" opacity="1.000000" stroke="none" 
	d="
M413.245636,326.988037 
	C413.020081,326.735138 413.041321,326.489441 413.103455,325.874634 
	C413.401001,325.804779 413.657623,326.103973 413.950195,326.703613 
	C413.986176,327.004059 413.492432,326.995270 413.245636,326.988037 
z"/>
<path fill="#E1E5EA" opacity="1.000000" stroke="none" 
	d="
M285.702148,362.578186 
	C285.192139,363.815491 284.420349,364.835388 283.358337,366.003967 
	C283.428070,364.619171 281.844574,361.869812 285.702148,362.578186 
z"/>
<path fill="#EDEFF0" opacity="1.000000" stroke="none" 
	d="
M447.954834,360.583435 
	C447.722351,360.201447 447.724426,359.821716 447.753906,359.444183 
	C447.754730,359.433655 448.049011,359.446014 448.206451,359.447693 
	C448.202026,359.827148 448.197632,360.206573 447.954834,360.583435 
z"/>
<path fill="#E1E5EA" opacity="1.000000" stroke="none" 
	d="
M287.458923,361.531494 
	C287.432404,361.483734 287.485413,361.579285 287.458923,361.531494 
z"/>
<path fill="#EDEFF0" opacity="1.000000" stroke="none" 
	d="
M197.998047,327.997437 
	C198.085281,327.961304 198.174484,327.927765 198.134384,327.949036 
	C198.005066,328.003876 198.000000,328.000000 197.998047,327.997437 
z"/>
<path fill="#FCFDFD" opacity="1.000000" stroke="none" 
	d="
M296.048767,282.987549 
	C293.349457,284.422150 292.956635,282.933441 292.983307,280.664307 
	C293.038055,276.008911 292.999725,271.352417 292.316101,266.667023 
	C289.928680,271.474091 291.946533,277.355072 288.620209,282.261047 
	C286.405090,278.184937 284.681854,275.013977 282.702881,271.372406 
	C278.122437,275.431671 274.102692,277.930328 268.841614,273.929382 
	C268.612305,273.432312 268.793243,273.004974 269.303894,272.115784 
	C269.834534,271.399780 269.929596,271.110809 269.918732,270.786957 
	C269.918732,270.786957 269.951904,270.347626 270.263580,269.995544 
	C270.678070,269.320984 270.780914,268.998444 270.883759,268.675934 
	C271.435333,267.281158 271.986877,265.886383 273.084106,264.196167 
	C273.979675,262.560028 274.329529,261.219360 274.679352,259.878693 
	C274.727539,259.717529 274.775757,259.556396 275.185577,258.993896 
	C275.644073,258.218719 275.740906,257.844849 275.837738,257.470978 
	C283.968353,238.779160 292.085876,220.081604 300.240875,201.400421 
	C301.831879,197.755753 303.568481,194.174683 305.525238,190.397888 
	C317.727509,214.229538 329.692688,238.202911 341.505829,262.250977 
	C343.375671,266.057434 344.391144,270.276123 346.126465,274.158997 
	C347.098114,276.333130 348.737030,278.209076 350.141296,280.576202 
	C347.526978,281.071167 345.076447,281.484283 344.621765,277.370361 
	C344.438538,275.712463 341.820374,274.323669 339.421539,273.401459 
	C340.027679,276.701843 340.633820,280.002197 341.367706,283.998108 
	C334.267120,283.998108 328.212311,284.024689 322.157928,283.984589 
	C319.841400,283.969238 317.738556,283.827454 318.630798,280.346161 
	C318.921600,279.211670 318.294983,277.368927 317.425842,276.573700 
	C316.829834,276.028381 314.360962,276.341888 314.025604,276.966980 
	C313.465729,278.010529 313.981049,279.611023 313.971375,280.976501 
	C313.964508,281.940857 313.838013,282.904419 313.335815,283.684845 
	C312.614929,283.339813 312.323120,283.178223 311.647949,283.011169 
	C309.519379,283.658752 307.774200,284.311768 306.424042,284.816986 
	C304.873108,282.309692 303.526978,280.133484 302.138062,277.528259 
	C301.429260,273.680542 300.763245,270.261810 300.097229,266.843048 
	C299.523346,266.925262 298.949432,267.007507 298.375549,267.089722 
	C297.850525,270.056274 297.325500,273.022797 296.463989,276.079712 
	C296.103577,277.786835 296.079681,279.403564 296.004028,281.346863 
	C295.984436,282.111420 296.016602,282.549500 296.048767,282.987549 
z"/>
<path fill="none" opacity="1.000000" stroke="none"
	d="
M294.920471,296.456238
	C295.565613,292.284058 296.286774,288.568787 297.373962,284.247284 
	C298.358856,280.890564 298.977692,278.140076 299.759644,274.664703 
	C300.707275,276.632721 301.308228,277.880829 301.961914,279.487213 
	C302.857208,283.133270 303.699799,286.421051 304.623840,290.026672 
	C306.771637,288.646606 308.234375,287.706696 310.080078,286.861725 
	C311.333618,287.959351 312.508575,288.827637 313.021179,289.988434 
	C315.064056,294.614319 316.900604,299.331299 318.813568,304.014557 
	C320.879517,308.766724 322.945465,313.518890 325.102234,318.636719 
	C325.115631,320.610321 325.038239,322.218201 324.925262,324.565216 
	C322.561554,323.668579 320.423737,323.195679 318.647552,322.123627 
	C312.007843,318.116028 305.669708,313.569458 298.845154,309.923798 
	C295.332611,308.047424 294.110260,306.095795 294.888641,302.353424 
	C295.251648,300.608032 294.980286,298.730682 294.920471,296.456238 
z"/>
<path fill="#2D6E9A" opacity="1.000000" stroke="none" 
	d="
M318.866669,303.635498 
	C316.900604,299.331299 315.064056,294.614319 313.021179,289.988434 
	C312.508575,288.827637 311.333618,287.959351 310.073700,286.525696 
	C310.466675,285.068756 311.248993,284.042694 312.031311,283.016632 
	C312.323120,283.178223 312.614929,283.339813 313.017090,283.745605 
	C315.058228,290.412048 316.989014,296.834229 318.866669,303.635498 
z"/>
<path fill="#DAE0E7" opacity="1.000000" stroke="none" 
	d="
M140.001801,381.998383 
	C139.503265,381.700165 139.002930,381.403564 138.502594,381.106995 
	C138.678116,380.903198 138.853607,380.699402 139.029099,380.495636 
	C139.326416,380.812958 139.623734,381.130280 139.958862,381.725616 
	C139.996643,382.003632 140.000000,382.000000 140.001801,381.998383 
z"/>
<path fill="#F3F6F7" opacity="1.000000" stroke="none" 
	d="
M274.445862,260.103638 
	C274.329529,261.219360 273.979675,262.560028 273.293335,263.947693 
	C273.375336,262.772644 273.793854,261.550629 274.445862,260.103638 
z"/>
<path fill="#F3F6F7" opacity="1.000000" stroke="none" 
	d="
M275.606995,257.658112 
	C275.740906,257.844849 275.644073,258.218719 275.326935,258.784943 
	C275.196503,258.599945 275.286377,258.222595 275.606995,257.658112 
z"/>
<path fill="#F3F6F7" opacity="1.000000" stroke="none" 
	d="
M270.669312,268.829102 
	C270.780914,268.998444 270.678070,269.320984 270.375671,269.805908 
	C270.269043,269.639648 270.361938,269.310944 270.669312,268.829102 
z"/>
<path fill="#F3F6F7" opacity="1.000000" stroke="none" 
	d="
M269.719818,270.921082 
	C269.929596,271.110809 269.834534,271.399780 269.457397,271.803467 
	C269.211823,271.613892 269.291718,271.314636 269.719818,270.921082 
z"/>
<path fill="#F3F6F7" opacity="1.000000" stroke="none" 
	d="
M335.463989,309.797241 
	C338.568939,310.871796 338.568939,310.871796 335.230896,315.436707 
	C335.230896,313.658142 335.230896,311.879578 335.463989,309.797241 
z"/>
<path fill="#EDEFF0" opacity="1.000000" stroke="none" 
	d="
M329.220886,322.789825 
	C329.575439,322.204498 329.993256,321.910431 330.411072,321.616394 
	C330.523682,322.051270 330.636292,322.486115 330.748901,322.920990 
	C330.260620,322.974335 329.772369,323.027710 329.220886,322.789825 
z"/>
<path fill="#5F80A9" opacity="1.000000" stroke="none" 
	d="
M301.909210,279.128937 
	C301.308228,277.880829 300.707275,276.632721 299.759644,274.664703 
	C298.977692,278.140076 298.358856,280.890564 297.424347,283.861084 
	C296.920990,283.781494 296.733337,283.481842 296.297211,283.084869 
	C296.016602,282.549500 295.984436,282.111420 296.327393,281.137115 
	C296.735168,279.063690 296.767792,277.526520 296.800476,275.989349 
	C297.325500,273.022797 297.850525,270.056274 298.375549,267.089722 
	C298.949432,267.007507 299.523346,266.925262 300.097229,266.843048 
	C300.763245,270.261810 301.429260,273.680542 302.066528,277.820312 
	C301.994904,278.737213 301.952057,278.933075 301.909210,279.128937 
z"/>
<path fill="#DAE0E7" opacity="1.000000" stroke="none" 
	d="
M301.961914,279.487213 
	C301.952057,278.933075 301.994904,278.737213 302.109314,278.249298 
	C303.526978,280.133484 304.873108,282.309692 306.424042,284.816986 
	C307.774200,284.311768 309.519379,283.658752 311.647949,283.011169 
	C311.248993,284.042694 310.466675,285.068756 309.690735,286.430786 
	C308.234375,287.706696 306.771637,288.646606 304.623840,290.026672 
	C303.699799,286.421051 302.857208,283.133270 301.961914,279.487213 
z"/>
<path fill="#F3F6F7" opacity="1.000000" stroke="none" 
	d="
M296.463989,276.079712 
	C296.767792,277.526520 296.735168,279.063690 296.379150,280.810608 
	C296.079681,279.403564 296.103577,277.786835 296.463989,276.079712 
z"/>
</svg>